<svg width="27" height="22" viewBox="0 0 27 22" fill="none" xmlns="http://www.w3.org/2000/svg">
<path fill-rule="evenodd" clip-rule="evenodd" d="M0 1.74287C0 0.890773 0.690761 0.200012 1.54286 0.200012H25.4571C26.3092 0.200012 27 0.890773 27 1.74287C27 2.59497 26.3092 3.28573 25.4571 3.28573H1.54286C0.690761 3.28573 0 2.59497 0 1.74287Z" fill="#fff"/>
<path fill-rule="evenodd" clip-rule="evenodd" d="M0 11C0 10.1479 0.690761 9.45715 1.54286 9.45715H25.4571C26.3092 9.45715 27 10.1479 27 11C27 11.8521 26.3092 12.5429 25.4571 12.5429H1.54286C0.690761 12.5429 0 11.8521 0 11Z" fill="#fff"/>
<path fill-rule="evenodd" clip-rule="evenodd" d="M0 20.2572C0 19.4051 0.690761 18.7143 1.54286 18.7143H25.4571C26.3092 18.7143 27 19.4051 27 20.2572C27 21.1092 26.3092 21.8 25.4571 21.8H1.54286C0.690761 21.8 0 21.1092 0 20.2572Z" fill="#fff"/>
</svg>
